<mxfile host="app.diagrams.net" modified="2023-06-03T09:47:50.073Z" agent="Mozilla/5.0 (Windows NT 10.0; Win64; x64) AppleWebKit/537.36 (KHTML, like Gecko) Chrome/114.0.0.0 Safari/537.36" etag="oqRCTBTQPNH4dBamRPw7" version="21.3.7" type="device">
  <diagram id="nCuKYuf6PiLBl1Ncbhkb" name="Page-1">
    <mxGraphModel dx="1434" dy="788" grid="1" gridSize="10" guides="1" tooltips="1" connect="1" arrows="1" fold="1" page="1" pageScale="1" pageWidth="4681" pageHeight="3300" background="none" math="0" shadow="0">
      <root>
        <mxCell id="0" />
        <mxCell id="1" parent="0" />
        <mxCell id="2" value="Budynek" style="rounded=0;whiteSpace=wrap;html=1;fillColor=#e1d5e7;strokeColor=#9673a6;" parent="1" vertex="1">
          <mxGeometry x="210" y="350" width="120" height="60" as="geometry" />
        </mxCell>
        <mxCell id="3" value="Sprzet" style="rounded=0;whiteSpace=wrap;html=1;fillColor=#fff2cc;strokeColor=#d6b656;" parent="1" vertex="1">
          <mxGeometry x="210" y="1050" width="120" height="60" as="geometry" />
        </mxCell>
        <mxCell id="5" value="Pomieszczenie" style="rounded=0;whiteSpace=wrap;html=1;fillColor=#d5e8d4;strokeColor=#82b366;" parent="1" vertex="1">
          <mxGeometry x="200" y="730" width="120" height="60" as="geometry" />
        </mxCell>
        <mxCell id="7" value="Ulica" style="ellipse;whiteSpace=wrap;html=1;fillColor=#e1d5e7;strokeColor=#9673a6;" parent="1" vertex="1">
          <mxGeometry x="40" y="340" width="120" height="80" as="geometry" />
        </mxCell>
        <mxCell id="8" value="Kod_pocztowy" style="ellipse;whiteSpace=wrap;html=1;fillColor=#e1d5e7;strokeColor=#9673a6;" parent="1" vertex="1">
          <mxGeometry x="40" y="460" width="120" height="80" as="geometry" />
        </mxCell>
        <mxCell id="9" value="Miasto" style="ellipse;whiteSpace=wrap;html=1;fillColor=#e1d5e7;strokeColor=#9673a6;" parent="1" vertex="1">
          <mxGeometry x="210" y="460" width="120" height="80" as="geometry" />
        </mxCell>
        <mxCell id="11" value="Nazwa" style="ellipse;whiteSpace=wrap;html=1;fillColor=#d5e8d4;strokeColor=#82b366;" parent="1" vertex="1">
          <mxGeometry x="30" y="720" width="120" height="80" as="geometry" />
        </mxCell>
        <mxCell id="12" value="Marka" style="ellipse;whiteSpace=wrap;html=1;fillColor=#fff2cc;strokeColor=#d6b656;" parent="1" vertex="1">
          <mxGeometry x="30" y="1030" width="120" height="80" as="geometry" />
        </mxCell>
        <mxCell id="14" value="Pracownik" style="rounded=0;whiteSpace=wrap;html=1;fillColor=#ffe6cc;strokeColor=#d79b00;" parent="1" vertex="1">
          <mxGeometry x="580" y="620" width="120" height="60" as="geometry" />
        </mxCell>
        <mxCell id="15" value="Imie" style="ellipse;whiteSpace=wrap;html=1;fillColor=#ffe6cc;strokeColor=#d79b00;" parent="1" vertex="1">
          <mxGeometry x="510" y="480" width="120" height="80" as="geometry" />
        </mxCell>
        <mxCell id="16" value="Nazwisko" style="ellipse;whiteSpace=wrap;html=1;fillColor=#ffe6cc;strokeColor=#d79b00;" parent="1" vertex="1">
          <mxGeometry x="740" y="510" width="120" height="80" as="geometry" />
        </mxCell>
        <mxCell id="17" value="Posada" style="ellipse;whiteSpace=wrap;html=1;fillColor=#ffe6cc;strokeColor=#d79b00;" parent="1" vertex="1">
          <mxGeometry x="750" y="610" width="120" height="80" as="geometry" />
        </mxCell>
        <mxCell id="18" value="Id_budynku" style="ellipse;whiteSpace=wrap;html=1;fillColor=#e1d5e7;strokeColor=#9673a6;" parent="1" vertex="1">
          <mxGeometry x="210" y="240" width="120" height="80" as="geometry" />
        </mxCell>
        <mxCell id="19" value="Numer_seryjny" style="ellipse;whiteSpace=wrap;html=1;fillColor=#fff2cc;strokeColor=#d6b656;" parent="1" vertex="1">
          <mxGeometry x="210" y="1150" width="120" height="80" as="geometry" />
        </mxCell>
        <mxCell id="4JGH8hwRLatWF1bkg30n-20" value="" style="endArrow=none;html=1;rounded=0;exitX=0.5;exitY=0;exitDx=0;exitDy=0;entryX=0.5;entryY=1;entryDx=0;entryDy=0;" parent="1" source="14" target="15" edge="1">
          <mxGeometry width="50" height="50" relative="1" as="geometry">
            <mxPoint x="600" y="730" as="sourcePoint" />
            <mxPoint x="650" y="680" as="targetPoint" />
          </mxGeometry>
        </mxCell>
        <mxCell id="4JGH8hwRLatWF1bkg30n-21" value="" style="endArrow=none;html=1;rounded=0;entryX=0;entryY=0.5;entryDx=0;entryDy=0;exitX=1;exitY=0;exitDx=0;exitDy=0;" parent="1" source="14" target="16" edge="1">
          <mxGeometry width="50" height="50" relative="1" as="geometry">
            <mxPoint x="690" y="620" as="sourcePoint" />
            <mxPoint x="740" y="570" as="targetPoint" />
          </mxGeometry>
        </mxCell>
        <mxCell id="4JGH8hwRLatWF1bkg30n-22" value="" style="endArrow=none;html=1;rounded=0;exitX=1;exitY=0.5;exitDx=0;exitDy=0;" parent="1" source="14" target="17" edge="1">
          <mxGeometry width="50" height="50" relative="1" as="geometry">
            <mxPoint x="710" y="750" as="sourcePoint" />
            <mxPoint x="760" y="700" as="targetPoint" />
          </mxGeometry>
        </mxCell>
        <mxCell id="4JGH8hwRLatWF1bkg30n-23" value="" style="endArrow=none;html=1;rounded=0;entryX=0;entryY=0.5;entryDx=0;entryDy=0;" parent="1" source="12" target="3" edge="1">
          <mxGeometry width="50" height="50" relative="1" as="geometry">
            <mxPoint x="180" y="1070" as="sourcePoint" />
            <mxPoint x="230" y="1020" as="targetPoint" />
          </mxGeometry>
        </mxCell>
        <mxCell id="4JGH8hwRLatWF1bkg30n-24" value="" style="endArrow=none;html=1;rounded=0;exitX=0.5;exitY=0;exitDx=0;exitDy=0;entryX=0.5;entryY=1;entryDx=0;entryDy=0;" parent="1" source="19" target="3" edge="1">
          <mxGeometry width="50" height="50" relative="1" as="geometry">
            <mxPoint x="360" y="1180" as="sourcePoint" />
            <mxPoint x="410" y="1130" as="targetPoint" />
          </mxGeometry>
        </mxCell>
        <mxCell id="4JGH8hwRLatWF1bkg30n-26" value="" style="endArrow=none;html=1;rounded=0;exitX=1;exitY=0.5;exitDx=0;exitDy=0;entryX=0;entryY=0.5;entryDx=0;entryDy=0;" parent="1" source="11" target="5" edge="1">
          <mxGeometry width="50" height="50" relative="1" as="geometry">
            <mxPoint x="170" y="760" as="sourcePoint" />
            <mxPoint x="200" y="630" as="targetPoint" />
          </mxGeometry>
        </mxCell>
        <mxCell id="4JGH8hwRLatWF1bkg30n-27" value="" style="endArrow=none;html=1;rounded=0;exitX=0.5;exitY=1;exitDx=0;exitDy=0;" parent="1" source="18" target="2" edge="1">
          <mxGeometry width="50" height="50" relative="1" as="geometry">
            <mxPoint x="410" y="360" as="sourcePoint" />
            <mxPoint x="460" y="310" as="targetPoint" />
          </mxGeometry>
        </mxCell>
        <mxCell id="4JGH8hwRLatWF1bkg30n-28" value="" style="endArrow=none;html=1;rounded=0;exitX=0.5;exitY=0;exitDx=0;exitDy=0;" parent="1" source="9" target="2" edge="1">
          <mxGeometry width="50" height="50" relative="1" as="geometry">
            <mxPoint x="390" y="490" as="sourcePoint" />
            <mxPoint x="440" y="440" as="targetPoint" />
          </mxGeometry>
        </mxCell>
        <mxCell id="4JGH8hwRLatWF1bkg30n-29" value="" style="endArrow=none;html=1;rounded=0;exitX=1;exitY=0;exitDx=0;exitDy=0;entryX=0;entryY=1;entryDx=0;entryDy=0;strokeWidth=1;" parent="1" source="8" target="2" edge="1">
          <mxGeometry width="50" height="50" relative="1" as="geometry">
            <mxPoint x="430" y="430" as="sourcePoint" />
            <mxPoint x="480" y="380" as="targetPoint" />
          </mxGeometry>
        </mxCell>
        <mxCell id="4JGH8hwRLatWF1bkg30n-30" value="" style="endArrow=none;html=1;rounded=0;exitX=1;exitY=0.5;exitDx=0;exitDy=0;strokeWidth=1;" parent="1" source="7" target="2" edge="1">
          <mxGeometry width="50" height="50" relative="1" as="geometry">
            <mxPoint x="130" y="310" as="sourcePoint" />
            <mxPoint x="180" y="260" as="targetPoint" />
          </mxGeometry>
        </mxCell>
        <mxCell id="4JGH8hwRLatWF1bkg30n-31" value="" style="endArrow=ERmany;html=1;strokeWidth=2;rounded=0;startArrow=ERmany;startFill=0;endFill=0;exitX=1;exitY=0.5;exitDx=0;exitDy=0;entryX=0;entryY=0.5;entryDx=0;entryDy=0;" parent="1" source="2" target="14" edge="1">
          <mxGeometry width="50" height="50" relative="1" as="geometry">
            <mxPoint x="500" y="440" as="sourcePoint" />
            <mxPoint x="550" y="390" as="targetPoint" />
            <Array as="points">
              <mxPoint x="490" y="380" />
              <mxPoint x="490" y="650" />
            </Array>
          </mxGeometry>
        </mxCell>
        <mxCell id="4JGH8hwRLatWF1bkg30n-32" value="" style="endArrow=ERone;html=1;rounded=0;startArrow=ERmany;startFill=0;entryX=1;entryY=1;entryDx=0;entryDy=0;endFill=0;strokeWidth=2;exitX=1;exitY=0.5;exitDx=0;exitDy=0;" parent="1" source="5" target="2" edge="1">
          <mxGeometry width="50" height="50" relative="1" as="geometry">
            <mxPoint x="370" y="770" as="sourcePoint" />
            <mxPoint x="340" y="410" as="targetPoint" />
            <Array as="points">
              <mxPoint x="420" y="760" />
              <mxPoint x="420" y="410" />
            </Array>
          </mxGeometry>
        </mxCell>
        <mxCell id="4JGH8hwRLatWF1bkg30n-34" value="" style="endArrow=ERmany;html=1;rounded=0;exitX=1;exitY=0.5;exitDx=0;exitDy=0;entryX=0.808;entryY=1;entryDx=0;entryDy=0;entryPerimeter=0;strokeWidth=2;startArrow=ERmany;startFill=0;endFill=0;" parent="1" source="3" target="5" edge="1">
          <mxGeometry width="50" height="50" relative="1" as="geometry">
            <mxPoint x="360" y="1050" as="sourcePoint" />
            <mxPoint x="400" y="800" as="targetPoint" />
            <Array as="points">
              <mxPoint x="400" y="1080" />
              <mxPoint x="400" y="840" />
              <mxPoint x="297" y="840" />
            </Array>
          </mxGeometry>
        </mxCell>
        <mxCell id="4JGH8hwRLatWF1bkg30n-51" value="Model" style="ellipse;whiteSpace=wrap;html=1;fillColor=#fff2cc;strokeColor=#d6b656;" parent="1" vertex="1">
          <mxGeometry x="30" y="1150" width="120" height="80" as="geometry" />
        </mxCell>
        <mxCell id="4JGH8hwRLatWF1bkg30n-52" value="" style="endArrow=none;html=1;rounded=0;entryX=0;entryY=1;entryDx=0;entryDy=0;exitX=1;exitY=0;exitDx=0;exitDy=0;" parent="1" source="4JGH8hwRLatWF1bkg30n-51" target="3" edge="1">
          <mxGeometry width="50" height="50" relative="1" as="geometry">
            <mxPoint x="170" y="1170" as="sourcePoint" />
            <mxPoint x="220" y="1120" as="targetPoint" />
          </mxGeometry>
        </mxCell>
        <mxCell id="4JGH8hwRLatWF1bkg30n-59" value="Dostawca" style="rounded=0;whiteSpace=wrap;html=1;fillColor=#f5f5f5;fontColor=#333333;strokeColor=#666666;" parent="1" vertex="1">
          <mxGeometry x="450" y="1220" width="120" height="60" as="geometry" />
        </mxCell>
        <mxCell id="4JGH8hwRLatWF1bkg30n-60" value="Nazwa" style="ellipse;whiteSpace=wrap;html=1;fillColor=#f5f5f5;fontColor=#333333;strokeColor=#666666;" parent="1" vertex="1">
          <mxGeometry x="310" y="1340" width="120" height="80" as="geometry" />
        </mxCell>
        <mxCell id="4JGH8hwRLatWF1bkg30n-61" value="Miasto" style="ellipse;whiteSpace=wrap;html=1;fillColor=#f5f5f5;fontColor=#333333;strokeColor=#666666;" parent="1" vertex="1">
          <mxGeometry x="470" y="1350" width="120" height="80" as="geometry" />
        </mxCell>
        <mxCell id="4JGH8hwRLatWF1bkg30n-62" value="Ulica" style="ellipse;whiteSpace=wrap;html=1;fillColor=#f5f5f5;fontColor=#333333;strokeColor=#666666;" parent="1" vertex="1">
          <mxGeometry x="620" y="1220" width="120" height="80" as="geometry" />
        </mxCell>
        <mxCell id="4JGH8hwRLatWF1bkg30n-63" value="Kod_pocztowy" style="ellipse;whiteSpace=wrap;html=1;fillColor=#f5f5f5;fontColor=#333333;strokeColor=#666666;" parent="1" vertex="1">
          <mxGeometry x="620" y="1340" width="120" height="80" as="geometry" />
        </mxCell>
        <mxCell id="4JGH8hwRLatWF1bkg30n-64" value="Id_dostawcy" style="ellipse;whiteSpace=wrap;html=1;fillColor=#f5f5f5;fontColor=#333333;strokeColor=#666666;" parent="1" vertex="1">
          <mxGeometry x="610" y="1110" width="120" height="80" as="geometry" />
        </mxCell>
        <mxCell id="4JGH8hwRLatWF1bkg30n-65" value="id_pomieszczenia" style="ellipse;whiteSpace=wrap;html=1;fillColor=#d5e8d4;strokeColor=#82b366;" parent="1" vertex="1">
          <mxGeometry x="30" y="610" width="120" height="80" as="geometry" />
        </mxCell>
        <mxCell id="4JGH8hwRLatWF1bkg30n-66" value="" style="endArrow=none;html=1;rounded=0;exitX=1;exitY=1;exitDx=0;exitDy=0;entryX=0.25;entryY=0;entryDx=0;entryDy=0;" parent="1" source="4JGH8hwRLatWF1bkg30n-65" target="5" edge="1">
          <mxGeometry width="50" height="50" relative="1" as="geometry">
            <mxPoint x="200" y="650" as="sourcePoint" />
            <mxPoint x="250" y="600" as="targetPoint" />
          </mxGeometry>
        </mxCell>
        <mxCell id="4JGH8hwRLatWF1bkg30n-68" value="" style="endArrow=none;html=1;rounded=0;exitX=0.683;exitY=0.05;exitDx=0;exitDy=0;exitPerimeter=0;entryX=0;entryY=1;entryDx=0;entryDy=0;" parent="1" source="4JGH8hwRLatWF1bkg30n-60" target="4JGH8hwRLatWF1bkg30n-59" edge="1">
          <mxGeometry width="50" height="50" relative="1" as="geometry">
            <mxPoint x="410" y="1330" as="sourcePoint" />
            <mxPoint x="460" y="1280" as="targetPoint" />
          </mxGeometry>
        </mxCell>
        <mxCell id="4JGH8hwRLatWF1bkg30n-69" value="" style="endArrow=none;html=1;rounded=0;exitX=0.5;exitY=0;exitDx=0;exitDy=0;entryX=0.5;entryY=1;entryDx=0;entryDy=0;" parent="1" source="4JGH8hwRLatWF1bkg30n-61" target="4JGH8hwRLatWF1bkg30n-59" edge="1">
          <mxGeometry width="50" height="50" relative="1" as="geometry">
            <mxPoint x="520" y="1350" as="sourcePoint" />
            <mxPoint x="570" y="1300" as="targetPoint" />
          </mxGeometry>
        </mxCell>
        <mxCell id="4JGH8hwRLatWF1bkg30n-70" value="" style="endArrow=none;html=1;rounded=0;exitX=0;exitY=0;exitDx=0;exitDy=0;entryX=1;entryY=1;entryDx=0;entryDy=0;" parent="1" source="4JGH8hwRLatWF1bkg30n-63" target="4JGH8hwRLatWF1bkg30n-59" edge="1">
          <mxGeometry width="50" height="50" relative="1" as="geometry">
            <mxPoint x="590" y="1350" as="sourcePoint" />
            <mxPoint x="640" y="1300" as="targetPoint" />
          </mxGeometry>
        </mxCell>
        <mxCell id="4JGH8hwRLatWF1bkg30n-71" value="" style="endArrow=none;html=1;rounded=0;entryX=1;entryY=0.25;entryDx=0;entryDy=0;" parent="1" source="4JGH8hwRLatWF1bkg30n-62" target="4JGH8hwRLatWF1bkg30n-59" edge="1">
          <mxGeometry width="50" height="50" relative="1" as="geometry">
            <mxPoint x="580" y="1250" as="sourcePoint" />
            <mxPoint x="630" y="1200" as="targetPoint" />
          </mxGeometry>
        </mxCell>
        <mxCell id="4JGH8hwRLatWF1bkg30n-72" value="" style="endArrow=none;html=1;rounded=0;exitX=0.667;exitY=0;exitDx=0;exitDy=0;exitPerimeter=0;" parent="1" source="4JGH8hwRLatWF1bkg30n-59" target="4JGH8hwRLatWF1bkg30n-64" edge="1">
          <mxGeometry width="50" height="50" relative="1" as="geometry">
            <mxPoint x="550" y="1190" as="sourcePoint" />
            <mxPoint x="600" y="1140" as="targetPoint" />
          </mxGeometry>
        </mxCell>
        <mxCell id="4JGH8hwRLatWF1bkg30n-73" value="" style="endArrow=ERmany;html=1;rounded=0;exitX=0.75;exitY=1;exitDx=0;exitDy=0;entryX=0;entryY=0;entryDx=0;entryDy=0;strokeWidth=2;startArrow=ERmany;startFill=0;endFill=0;" parent="1" source="3" target="4JGH8hwRLatWF1bkg30n-59" edge="1">
          <mxGeometry width="50" height="50" relative="1" as="geometry">
            <mxPoint x="430" y="1200" as="sourcePoint" />
            <mxPoint x="480" y="1150" as="targetPoint" />
            <Array as="points">
              <mxPoint x="450" y="1110" />
            </Array>
          </mxGeometry>
        </mxCell>
        <mxCell id="4JGH8hwRLatWF1bkg30n-74" value="Naprawa" style="rounded=0;whiteSpace=wrap;html=1;fillColor=#f8cecc;strokeColor=#b85450;" parent="1" vertex="1">
          <mxGeometry x="130" y="1480" width="120" height="60" as="geometry" />
        </mxCell>
        <mxCell id="4JGH8hwRLatWF1bkg30n-75" value="" style="endArrow=ERone;html=1;rounded=0;exitX=1;exitY=0.5;exitDx=0;exitDy=0;entryX=1;entryY=0.75;entryDx=0;entryDy=0;strokeWidth=2;startArrow=ERmany;startFill=0;endFill=0;" parent="1" source="4JGH8hwRLatWF1bkg30n-74" target="3" edge="1">
          <mxGeometry width="50" height="50" relative="1" as="geometry">
            <mxPoint x="210" y="1340" as="sourcePoint" />
            <mxPoint x="380" y="1320" as="targetPoint" />
            <Array as="points">
              <mxPoint x="250" y="1340" />
              <mxPoint x="250" y="1260" />
              <mxPoint x="420" y="1260" />
              <mxPoint x="420" y="1095" />
            </Array>
          </mxGeometry>
        </mxCell>
        <mxCell id="4JGH8hwRLatWF1bkg30n-76" value="Nazwa" style="ellipse;whiteSpace=wrap;html=1;fillColor=#f8cecc;strokeColor=#b85450;" parent="1" vertex="1">
          <mxGeometry x="230" y="1590" width="120" height="80" as="geometry" />
        </mxCell>
        <mxCell id="4JGH8hwRLatWF1bkg30n-77" value="id_naprawy" style="ellipse;whiteSpace=wrap;html=1;fillColor=#f8cecc;strokeColor=#b85450;" parent="1" vertex="1">
          <mxGeometry x="90" y="1320" width="120" height="80" as="geometry" />
        </mxCell>
        <mxCell id="4JGH8hwRLatWF1bkg30n-78" value="" style="endArrow=none;html=1;rounded=0;entryX=0.5;entryY=1;entryDx=0;entryDy=0;" parent="1" source="B0QInMpFJa5jYu5KPm1_-66" target="4JGH8hwRLatWF1bkg30n-74" edge="1">
          <mxGeometry width="50" height="50" relative="1" as="geometry">
            <mxPoint x="270" y="1610" as="sourcePoint" />
            <mxPoint x="320" y="1560" as="targetPoint" />
          </mxGeometry>
        </mxCell>
        <mxCell id="4JGH8hwRLatWF1bkg30n-79" value="" style="endArrow=none;html=1;rounded=0;exitX=0.5;exitY=0;exitDx=0;exitDy=0;entryX=0.617;entryY=0.988;entryDx=0;entryDy=0;entryPerimeter=0;" parent="1" source="4JGH8hwRLatWF1bkg30n-74" target="4JGH8hwRLatWF1bkg30n-77" edge="1">
          <mxGeometry width="50" height="50" relative="1" as="geometry">
            <mxPoint x="170" y="1470" as="sourcePoint" />
            <mxPoint x="220" y="1420" as="targetPoint" />
          </mxGeometry>
        </mxCell>
        <mxCell id="4JGH8hwRLatWF1bkg30n-82" value="Magazyn" style="rounded=0;whiteSpace=wrap;html=1;fillColor=#b0e3e6;strokeColor=#0e8088;" parent="1" vertex="1">
          <mxGeometry x="830" y="1230" width="120" height="60" as="geometry" />
        </mxCell>
        <mxCell id="4JGH8hwRLatWF1bkg30n-83" value="id_magazynu" style="ellipse;whiteSpace=wrap;html=1;fillColor=#b0e3e6;strokeColor=#0e8088;" parent="1" vertex="1">
          <mxGeometry x="830" y="1110" width="120" height="80" as="geometry" />
        </mxCell>
        <mxCell id="4JGH8hwRLatWF1bkg30n-85" value="Miasto" style="ellipse;whiteSpace=wrap;html=1;fillColor=#b1ddf0;strokeColor=#10739e;" parent="1" vertex="1">
          <mxGeometry x="1000" y="1220" width="120" height="80" as="geometry" />
        </mxCell>
        <mxCell id="4JGH8hwRLatWF1bkg30n-88" value="Ulica" style="ellipse;whiteSpace=wrap;html=1;fillColor=#b1ddf0;strokeColor=#10739e;" parent="1" vertex="1">
          <mxGeometry x="1000" y="1100" width="120" height="80" as="geometry" />
        </mxCell>
        <mxCell id="4JGH8hwRLatWF1bkg30n-89" value="Kod_pocztowy" style="ellipse;whiteSpace=wrap;html=1;fillColor=#b1ddf0;strokeColor=#10739e;" parent="1" vertex="1">
          <mxGeometry x="1010" y="1330" width="120" height="80" as="geometry" />
        </mxCell>
        <mxCell id="4JGH8hwRLatWF1bkg30n-91" value="" style="endArrow=none;html=1;rounded=0;exitX=0.5;exitY=0;exitDx=0;exitDy=0;entryX=0.5;entryY=1;entryDx=0;entryDy=0;" parent="1" source="4JGH8hwRLatWF1bkg30n-82" target="4JGH8hwRLatWF1bkg30n-83" edge="1">
          <mxGeometry width="50" height="50" relative="1" as="geometry">
            <mxPoint x="940" y="1080" as="sourcePoint" />
            <mxPoint x="990" y="1030" as="targetPoint" />
          </mxGeometry>
        </mxCell>
        <mxCell id="4JGH8hwRLatWF1bkg30n-92" value="" style="endArrow=none;html=1;rounded=0;exitX=1;exitY=0;exitDx=0;exitDy=0;entryX=0;entryY=1;entryDx=0;entryDy=0;" parent="1" source="4JGH8hwRLatWF1bkg30n-82" target="4JGH8hwRLatWF1bkg30n-88" edge="1">
          <mxGeometry width="50" height="50" relative="1" as="geometry">
            <mxPoint x="1020" y="1040" as="sourcePoint" />
            <mxPoint x="1070" y="990" as="targetPoint" />
          </mxGeometry>
        </mxCell>
        <mxCell id="4JGH8hwRLatWF1bkg30n-95" value="" style="endArrow=none;html=1;rounded=0;exitX=0;exitY=0;exitDx=0;exitDy=0;entryX=1;entryY=1;entryDx=0;entryDy=0;" parent="1" source="4JGH8hwRLatWF1bkg30n-89" target="4JGH8hwRLatWF1bkg30n-82" edge="1">
          <mxGeometry width="50" height="50" relative="1" as="geometry">
            <mxPoint x="1100" y="1020" as="sourcePoint" />
            <mxPoint x="1150" y="970" as="targetPoint" />
          </mxGeometry>
        </mxCell>
        <mxCell id="4JGH8hwRLatWF1bkg30n-96" value="" style="endArrow=none;html=1;rounded=0;exitX=0.017;exitY=0.325;exitDx=0;exitDy=0;exitPerimeter=0;entryX=1;entryY=0.5;entryDx=0;entryDy=0;" parent="1" source="4JGH8hwRLatWF1bkg30n-85" target="4JGH8hwRLatWF1bkg30n-82" edge="1">
          <mxGeometry width="50" height="50" relative="1" as="geometry">
            <mxPoint x="1000" y="990" as="sourcePoint" />
            <mxPoint x="1050" y="940" as="targetPoint" />
          </mxGeometry>
        </mxCell>
        <mxCell id="4JGH8hwRLatWF1bkg30n-97" value="" style="endArrow=ERmany;html=1;rounded=0;exitX=0.5;exitY=0;exitDx=0;exitDy=0;entryX=0;entryY=0.5;entryDx=0;entryDy=0;strokeWidth=2;startArrow=ERmany;startFill=0;endFill=0;" parent="1" source="4JGH8hwRLatWF1bkg30n-59" target="4JGH8hwRLatWF1bkg30n-82" edge="1">
          <mxGeometry width="50" height="50" relative="1" as="geometry">
            <mxPoint x="620" y="1080" as="sourcePoint" />
            <mxPoint x="800" y="1080" as="targetPoint" />
            <Array as="points">
              <mxPoint x="510" y="1080" />
              <mxPoint x="800" y="1080" />
              <mxPoint x="800" y="1260" />
            </Array>
          </mxGeometry>
        </mxCell>
        <mxCell id="ewPVPcLTkbsKZmsoeMM9-21" value="Id_pracownika" style="ellipse;whiteSpace=wrap;html=1;fillColor=#ffe6cc;strokeColor=#d79b00;" parent="1" vertex="1">
          <mxGeometry x="580" y="700" width="120" height="80" as="geometry" />
        </mxCell>
        <mxCell id="ewPVPcLTkbsKZmsoeMM9-22" value="" style="endArrow=none;html=1;rounded=0;fontSize=12;startSize=8;endSize=8;curved=1;exitX=0.5;exitY=0;exitDx=0;exitDy=0;entryX=0.5;entryY=1;entryDx=0;entryDy=0;" parent="1" source="ewPVPcLTkbsKZmsoeMM9-21" target="14" edge="1">
          <mxGeometry width="50" height="50" relative="1" as="geometry">
            <mxPoint x="930" y="660" as="sourcePoint" />
            <mxPoint x="980" y="610" as="targetPoint" />
          </mxGeometry>
        </mxCell>
        <mxCell id="B0QInMpFJa5jYu5KPm1_-32" value="id_sprzetu" style="ellipse;whiteSpace=wrap;html=1;fillColor=#fff2cc;strokeColor=#d6b656;" parent="1" vertex="1">
          <mxGeometry x="30" y="920" width="120" height="80" as="geometry" />
        </mxCell>
        <mxCell id="B0QInMpFJa5jYu5KPm1_-33" value="" style="endArrow=none;html=1;rounded=0;fontSize=12;startSize=8;endSize=8;curved=1;exitX=1;exitY=1;exitDx=0;exitDy=0;entryX=0;entryY=0;entryDx=0;entryDy=0;strokeWidth=1;" parent="1" source="B0QInMpFJa5jYu5KPm1_-32" target="3" edge="1">
          <mxGeometry width="50" height="50" relative="1" as="geometry">
            <mxPoint x="150" y="940" as="sourcePoint" />
            <mxPoint x="200" y="890" as="targetPoint" />
          </mxGeometry>
        </mxCell>
        <mxCell id="B0QInMpFJa5jYu5KPm1_-46" value="" style="endArrow=ERmany;html=1;rounded=0;exitX=1;exitY=0;exitDx=0;exitDy=0;startArrow=ERmany;startFill=0;endFill=0;strokeWidth=2;entryX=0;entryY=0;entryDx=0;entryDy=0;" parent="1" source="5" target="14" edge="1">
          <mxGeometry width="50" height="50" relative="1" as="geometry">
            <mxPoint x="270" y="740" as="sourcePoint" />
            <mxPoint x="570" y="370" as="targetPoint" />
            <Array as="points">
              <mxPoint x="440" y="730" />
              <mxPoint x="440" y="620" />
            </Array>
          </mxGeometry>
        </mxCell>
        <mxCell id="B0QInMpFJa5jYu5KPm1_-64" value="Kategoria" style="ellipse;whiteSpace=wrap;html=1;fillColor=#fff2cc;strokeColor=#d6b656;" parent="1" vertex="1">
          <mxGeometry x="150" y="920" width="120" height="80" as="geometry" />
        </mxCell>
        <mxCell id="B0QInMpFJa5jYu5KPm1_-65" value="" style="endArrow=none;html=1;rounded=0;fontSize=12;startSize=8;endSize=8;curved=1;exitX=0.5;exitY=1;exitDx=0;exitDy=0;entryX=0.5;entryY=0;entryDx=0;entryDy=0;strokeWidth=1;" parent="1" source="B0QInMpFJa5jYu5KPm1_-64" target="3" edge="1">
          <mxGeometry width="50" height="50" relative="1" as="geometry">
            <mxPoint x="152" y="1008" as="sourcePoint" />
            <mxPoint x="220" y="1060" as="targetPoint" />
          </mxGeometry>
        </mxCell>
        <mxCell id="B0QInMpFJa5jYu5KPm1_-66" value="Koszt" style="ellipse;whiteSpace=wrap;html=1;fillColor=#f8cecc;strokeColor=#b85450;" parent="1" vertex="1">
          <mxGeometry x="40" y="1590" width="120" height="80" as="geometry" />
        </mxCell>
        <mxCell id="B0QInMpFJa5jYu5KPm1_-67" value="" style="endArrow=none;html=1;rounded=0;" parent="1" source="4JGH8hwRLatWF1bkg30n-76" target="4JGH8hwRLatWF1bkg30n-74" edge="1">
          <mxGeometry width="50" height="50" relative="1" as="geometry">
            <mxPoint x="143" y="1607" as="sourcePoint" />
            <mxPoint x="200" y="1550" as="targetPoint" />
          </mxGeometry>
        </mxCell>
        <mxCell id="B0QInMpFJa5jYu5KPm1_-68" value="data_naprawy" style="ellipse;whiteSpace=wrap;html=1;fillColor=#f8cecc;strokeColor=#b85450;" parent="1" vertex="1">
          <mxGeometry x="330" y="1470" width="120" height="80" as="geometry" />
        </mxCell>
        <mxCell id="B0QInMpFJa5jYu5KPm1_-69" value="" style="endArrow=none;html=1;rounded=0;entryX=1;entryY=0.75;entryDx=0;entryDy=0;exitX=0.008;exitY=0.675;exitDx=0;exitDy=0;exitPerimeter=0;" parent="1" source="B0QInMpFJa5jYu5KPm1_-68" target="4JGH8hwRLatWF1bkg30n-74" edge="1">
          <mxGeometry width="50" height="50" relative="1" as="geometry">
            <mxPoint x="271" y="1605" as="sourcePoint" />
            <mxPoint x="225" y="1550" as="targetPoint" />
          </mxGeometry>
        </mxCell>
        <mxCell id="B0QInMpFJa5jYu5KPm1_-74" style="edgeStyle=none;curved=1;rounded=0;orthogonalLoop=1;jettySize=auto;html=1;entryX=1;entryY=0.5;entryDx=0;entryDy=0;fontSize=12;startSize=8;endSize=8;" parent="1" source="5" target="5" edge="1">
          <mxGeometry relative="1" as="geometry" />
        </mxCell>
        <mxCell id="B0QInMpFJa5jYu5KPm1_-78" value="" style="endArrow=ERmany;html=1;rounded=0;entryX=0;entryY=1;entryDx=0;entryDy=0;strokeWidth=2;startArrow=ERmany;startFill=0;endFill=0;exitX=1;exitY=0.25;exitDx=0;exitDy=0;" parent="1" source="3" target="14" edge="1">
          <mxGeometry width="50" height="50" relative="1" as="geometry">
            <mxPoint x="330" y="1065" as="sourcePoint" />
            <mxPoint x="520" y="890" as="targetPoint" />
            <Array as="points">
              <mxPoint x="520" y="1065" />
              <mxPoint x="520" y="680" />
            </Array>
          </mxGeometry>
        </mxCell>
        <mxCell id="xOhF2aZ5sMPnhl8sl5h8-21" value="sprzet_nr" style="ellipse;whiteSpace=wrap;html=1;fillColor=#f8cecc;strokeColor=#b85450;" parent="1" vertex="1">
          <mxGeometry y="1400" width="120" height="80" as="geometry" />
        </mxCell>
        <mxCell id="xOhF2aZ5sMPnhl8sl5h8-22" value="" style="endArrow=none;html=1;rounded=0;exitX=0.058;exitY=0.033;exitDx=0;exitDy=0;entryX=0.925;entryY=0.775;entryDx=0;entryDy=0;entryPerimeter=0;exitPerimeter=0;" parent="1" source="4JGH8hwRLatWF1bkg30n-74" target="xOhF2aZ5sMPnhl8sl5h8-21" edge="1">
          <mxGeometry width="50" height="50" relative="1" as="geometry">
            <mxPoint x="200" y="1490" as="sourcePoint" />
            <mxPoint x="174" y="1409" as="targetPoint" />
          </mxGeometry>
        </mxCell>
        <mxCell id="R5lm6-s0TDbsdfjfQjIS-19" value="Budynek_nr" style="ellipse;whiteSpace=wrap;html=1;fillColor=#d5e8d4;strokeColor=#82b366;" vertex="1" parent="1">
          <mxGeometry x="210" y="580" width="120" height="80" as="geometry" />
        </mxCell>
        <mxCell id="R5lm6-s0TDbsdfjfQjIS-20" value="" style="endArrow=none;html=1;rounded=0;exitX=0.5;exitY=1;exitDx=0;exitDy=0;entryX=0.5;entryY=0;entryDx=0;entryDy=0;" edge="1" parent="1" source="R5lm6-s0TDbsdfjfQjIS-19" target="5">
          <mxGeometry width="50" height="50" relative="1" as="geometry">
            <mxPoint x="360" y="680" as="sourcePoint" />
            <mxPoint x="410" y="630" as="targetPoint" />
          </mxGeometry>
        </mxCell>
      </root>
    </mxGraphModel>
  </diagram>
</mxfile>
